<svg width="444" height="252" viewBox="0 0 444 252" fill="none" xmlns="http://www.w3.org/2000/svg">
<path d="M48.4939 188.065C87.4266 203.424 131.446 184.295 146.814 145.34C154.192 126.636 153.624 106.763 146.73 89.4543L229.891 64.8302C234.493 72.0959 241.357 78.0198 249.968 81.4169C254.335 83.1397 258.818 84.0808 263.261 84.3074L260.788 141.793C240.066 142.97 220.9 155.913 212.779 176.498C201.647 204.718 215.485 236.614 243.689 247.74C271.892 258.866 303.78 245.009 314.912 216.79C321.428 200.273 319.39 182.497 310.924 168.363L398.079 82.3952C399.992 83.7833 402.109 84.9554 404.409 85.8628C419.123 91.6677 435.761 84.438 441.569 69.7148C447.377 54.9915 440.157 38.3502 425.442 32.5452C410.728 26.7403 394.09 33.97 388.282 48.6932C384.481 58.3297 386.26 68.7878 392.069 76.4916L305.758 161.134C300.094 154.431 292.737 148.994 284.003 145.548C279.794 143.888 275.503 142.784 271.212 142.201L273.494 83.5689C287.09 80.8889 299.082 71.5526 304.547 57.6995C313.078 36.0748 302.474 11.6328 280.861 3.10675C259.249 -5.41926 234.813 5.19937 226.282 26.8241C223.355 34.2444 222.681 41.9964 223.931 49.3233L135.67 70.3369C127.669 60.2451 116.986 52.0612 104.146 46.9958C65.2129 31.6369 21.1936 50.7655 5.82581 89.7207C-9.54197 128.676 9.56119 172.706 48.4939 188.065Z" fill="#C2A7D4" fill-opacity="0.7"/>
</svg>
