<svg width="755" height="711" viewBox="0 0 755 711" fill="none" xmlns="http://www.w3.org/2000/svg">
<path d="M470.344 244.614C441.562 175.535 362.231 142.868 293.152 171.65C275.969 178.81 261.039 189.097 248.747 201.576L179.325 140.262C192.075 116.073 194.338 86.5914 183 59.3793C162.821 10.9479 107.201 -11.9551 58.77 8.22386C10.3386 28.4029 -12.5645 84.0226 7.61454 132.454C27.7935 180.885 83.4133 203.788 131.845 183.609C147.003 177.294 159.66 167.506 169.279 155.554L235.409 217.376C208.796 254.293 201.402 303.751 220.189 348.841C233.29 380.286 256.865 404.185 285.18 418.179L263.951 522.778C245.21 518.392 224.965 519.642 205.84 527.61C157.409 547.789 134.506 603.409 154.685 651.841C174.864 700.272 230.483 723.175 278.915 702.996C327.346 682.817 350.249 627.197 330.07 578.766C320.209 555.097 301.883 537.526 280.068 528.1L304.342 425.903C333.807 435.254 366.611 434.625 397.38 421.805C459.06 396.106 491.71 330.106 477.508 267.087L571.844 251.615C592.023 300.047 647.642 322.95 696.074 302.771C744.505 282.592 767.408 226.972 747.229 178.541C727.05 130.109 671.431 107.206 622.999 127.385C583.395 143.886 560.861 184.087 564.997 224.676L470.344 244.614Z" fill="#FC6C72"/>
</svg>
