<svg width="965" height="898" viewBox="0 0 965 898" fill="none" xmlns="http://www.w3.org/2000/svg">
<g filter="url(#filter0_i_5_47)">
<path d="M271.908 851.479C334.772 789.748 335.672 688.727 273.918 625.844C244.268 595.651 205.566 579.739 166.38 578.188L190.221 397.192C208.132 394.559 225.399 386.427 239.304 372.773C246.355 365.849 252.002 358.034 256.241 349.684L364.668 403.622C349.192 444.482 357.673 492.412 390.306 525.642C435.041 571.196 508.223 571.873 553.762 527.154C594.4 487.248 599.293 424.678 568.085 379.3L755.066 222.156C802.088 263.066 873.297 263.841 921.351 221.498C973.689 175.379 978.739 95.5744 932.632 43.2489C886.524 -9.07647 806.718 -14.1081 754.38 32.0105C702.043 78.1292 696.992 157.934 743.099 210.259L556.829 365.375C556.299 364.813 555.762 364.256 555.218 363.702C529.035 337.04 493.108 325.751 458.682 329.939C458.682 329.939 450.31 331.119 448.971 331.38C447.632 331.641 440.358 333.69 440.358 333.69C422.619 338.846 405.865 348.342 391.762 362.19C384.966 368.864 379.17 376.171 374.375 383.926L263.582 329.371C270.068 300.932 262.38 269.882 240.42 247.519C206.139 212.611 150.06 212.093 115.163 246.361C80.2659 280.629 79.7662 336.707 114.047 371.615C125.81 383.593 140.14 391.522 155.299 395.386L120.15 583.102C93.8938 589.855 69.0108 603.398 48.2783 623.756C-14.5857 685.488 -15.4858 786.508 46.2679 849.392C108.022 912.275 209.044 913.21 271.908 851.479Z" fill="#C670AD"/>
</g>
<defs>
<filter id="filter0_i_5_47" x="0.535156" y="0.461426" width="963.627" height="901.511" filterUnits="userSpaceOnUse" color-interpolation-filters="sRGB">
<feFlood flood-opacity="0" result="BackgroundImageFix"/>
<feBlend mode="normal" in="SourceGraphic" in2="BackgroundImageFix" result="shape"/>
<feColorMatrix in="SourceAlpha" type="matrix" values="0 0 0 0 0 0 0 0 0 0 0 0 0 0 0 0 0 0 127 0" result="hardAlpha"/>
<feOffset dy="9"/>
<feGaussianBlur stdDeviation="2.4"/>
<feComposite in2="hardAlpha" operator="arithmetic" k2="-1" k3="1"/>
<feColorMatrix type="matrix" values="0 0 0 0 1 0 0 0 0 1 0 0 0 0 1 0 0 0 0.3 0"/>
<feBlend mode="normal" in2="shape" result="effect1_innerShadow_5_47"/>
</filter>
</defs>
</svg>
