<svg width="965" height="842" viewBox="0 0 965 842" fill="none" xmlns="http://www.w3.org/2000/svg">
<g filter="url(#filter0_i_5_47)">
<path d="M271.908 795.479C334.772 733.748 335.672 632.727 273.919 569.844C244.268 539.651 205.566 523.739 166.381 522.188L190.221 341.192C208.132 338.559 225.399 330.427 239.304 316.773C246.355 309.849 252.002 302.034 256.242 293.684L364.668 347.622C349.192 388.482 357.673 436.412 390.306 469.642C435.041 515.196 508.223 515.873 553.762 471.154C594.4 431.248 599.293 368.678 568.085 323.3L755.066 166.156C802.088 207.066 873.297 207.841 921.351 165.498C973.689 119.379 978.739 39.5744 932.632 -12.7511C886.524 -65.0765 806.719 -70.1081 754.381 -23.9895C702.043 22.1292 696.992 101.934 743.099 154.259L556.829 309.375C556.299 308.813 555.762 308.256 555.218 307.702C529.036 281.04 493.108 269.751 458.682 273.939C458.682 273.939 450.31 275.119 448.971 275.38C447.633 275.641 440.358 277.69 440.358 277.69C422.619 282.846 405.865 292.342 391.762 306.19C384.966 312.864 379.17 320.171 374.375 327.926L263.583 273.371C270.068 244.932 262.38 213.882 240.42 191.519C206.139 156.611 150.06 156.093 115.163 190.361C80.266 224.629 79.7664 280.707 114.047 315.615C125.81 327.593 140.14 335.522 155.3 339.386L120.15 527.102C93.8939 533.855 69.0109 547.398 48.2784 567.756C-14.5855 629.488 -15.4857 730.508 46.268 793.392C108.022 856.275 209.044 857.21 271.908 795.479Z" fill="#C670AD"/>
</g>
<defs>
<filter id="filter0_i_5_47" x="0.535233" y="-55.5386" width="963.627" height="901.511" filterUnits="userSpaceOnUse" color-interpolation-filters="sRGB">
<feFlood flood-opacity="0" result="BackgroundImageFix"/>
<feBlend mode="normal" in="SourceGraphic" in2="BackgroundImageFix" result="shape"/>
<feColorMatrix in="SourceAlpha" type="matrix" values="0 0 0 0 0 0 0 0 0 0 0 0 0 0 0 0 0 0 127 0" result="hardAlpha"/>
<feOffset dy="9"/>
<feGaussianBlur stdDeviation="2.4"/>
<feComposite in2="hardAlpha" operator="arithmetic" k2="-1" k3="1"/>
<feColorMatrix type="matrix" values="0 0 0 0 1 0 0 0 0 1 0 0 0 0 1 0 0 0 0.3 0"/>
<feBlend mode="normal" in2="shape" result="effect1_innerShadow_5_47"/>
</filter>
</defs>
</svg>
