<svg width="408" height="252" viewBox="0 0 408 252" fill="none" xmlns="http://www.w3.org/2000/svg">
<path d="M12.4939 188.065C51.4266 203.424 95.4459 184.295 110.814 145.34C118.192 126.636 117.624 106.763 110.73 89.4543L193.891 64.8302C198.493 72.0959 205.357 78.0198 213.968 81.4169C218.335 83.1397 222.818 84.0808 227.261 84.3074L224.788 141.793C204.066 142.97 184.9 155.913 176.779 176.498C165.647 204.718 179.485 236.614 207.689 247.74C235.892 258.866 267.78 245.009 278.912 216.79C285.428 200.273 283.39 182.497 274.924 168.363L362.079 82.3952C363.992 83.7833 366.109 84.9554 368.409 85.8628C383.123 91.6677 399.761 84.438 405.569 69.7148C411.377 54.9915 404.157 38.3502 389.442 32.5452C374.728 26.7403 358.09 33.97 352.282 48.6932C348.481 58.3297 350.26 68.7878 356.069 76.4916L269.758 161.134C264.094 154.431 256.737 148.994 248.003 145.548C243.794 143.888 239.503 142.784 235.212 142.201L237.494 83.5689C251.09 80.8889 263.082 71.5526 268.547 57.6995C277.078 36.0748 266.474 11.6328 244.861 3.10675C223.249 -5.41926 198.813 5.19937 190.282 26.8241C187.355 34.2444 186.681 41.9964 187.931 49.3233L99.6699 70.3369C91.6688 60.2451 80.9856 52.0612 68.1456 46.9958C29.2129 31.6369 -14.8064 50.7655 -30.1742 89.7207C-45.542 128.676 -26.4388 172.706 12.4939 188.065Z" fill="#C2A7D4" fill-opacity="0.7"/>
</svg>
