<svg width="662" height="441" viewBox="0 0 662 441" fill="none" xmlns="http://www.w3.org/2000/svg">
<path d="M563.9 428.737C513.798 401.886 494.958 339.491 521.82 289.373C534.717 265.31 555.804 248.452 579.79 240.4L532.27 132.631C520.701 134.241 508.537 132.331 497.455 126.392C491.835 123.38 486.924 119.563 482.788 115.158L425.405 168.183C442.383 190.686 445.805 221.902 431.611 248.386C412.152 284.692 366.956 298.355 330.662 278.904C298.274 261.547 283.921 223.684 295.034 189.936L150.804 126.461C129.089 160.305 85.1318 173.673 47.7106 156.147C6.95314 137.06 -10.6175 88.5538 8.46557 47.8061C27.5486 7.05841 76.0589 -10.5006 116.816 8.58702C157.574 27.6746 175.144 76.1807 156.061 116.928L299.484 179.275C299.711 178.831 299.943 178.389 300.179 177.948C311.568 156.699 331.773 143.206 353.85 139.569C353.85 139.569 359.248 138.784 360.125 138.703C361.001 138.623 365.876 138.575 365.876 138.575C377.795 138.558 389.888 141.406 401.128 147.43C406.544 150.332 411.456 153.808 415.829 157.743L474.566 103.908C465.403 87.4706 464.544 66.8509 474.096 49.0283C489.007 21.2071 523.641 10.7368 551.453 25.6422C579.266 40.5476 589.724 75.1844 574.813 103.006C569.696 112.552 562.257 120.056 553.569 125.192L609.308 235.076C626.789 234.506 644.649 238.39 661.173 247.245C711.274 274.096 730.114 336.491 703.253 386.609C676.391 436.727 614.001 455.588 563.9 428.737Z" fill="#ADA7D4" fill-opacity="0.76"/>
</svg>
