<svg width="1140" height="1146" viewBox="0 0 1140 1146" fill="none" xmlns="http://www.w3.org/2000/svg">
<path d="M1071.18 563.852C1068.86 532.318 1024.09 489.569 1023.3 437.939C1021.49 320.194 1107.82 314.441 1126.08 235.845C1137.33 187.39 1155.52 108.607 1110.15 88.0874C1074.45 71.9418 1046.14 82.3337 1010.33 98.209C952.821 123.703 893.708 175.739 831.97 163.572C780.932 153.514 810.004 85.5581 773.313 48.7142C697.229 -27.6881 676.498 -0.0805245 579.925 47.8989C556.374 59.5993 543.956 68.656 525.09 86.9635C462.066 148.125 580.626 174.539 551.739 289.028C536.031 351.285 350.195 203.818 295.091 196.501C253.586 192.652 170.648 181.955 122.618 252.059C74.589 322.163 153.365 418.483 34.3711 479.608C-84.6229 540.734 145.497 732.292 184.1 772.797C279.832 873.248 249.249 878.94 257.893 952.898C266.537 1026.86 261.547 1120.59 339.123 1142.4C418.284 1164.64 483.019 1039.21 507.525 1016.18C532.032 993.153 565.278 970.595 583.12 929.335C600.041 890.206 592.26 851.139 595.793 820.92C599.325 790.701 636.931 708.236 696.404 706.679C741.149 705.508 751.268 752.906 793.646 767.309C873.062 794.302 939.89 793.178 1007.04 742.99C1094.61 677.544 1073.5 595.387 1071.18 563.852Z" stroke="#4F2567"/>
<path d="M659.759 605.474C661.199 598.433 654.004 586.296 657.022 574.954C663.904 549.09 683.233 553.207 692.104 537.154C697.574 527.257 706.443 511.159 697.74 503.846C690.893 498.092 684.028 498.602 675.176 499.844C660.961 501.839 644.753 509.54 631.937 503.035C621.342 497.657 631.933 484.604 626.147 474.262C614.15 452.815 607.887 457.562 583.696 462.043C577.797 463.135 574.508 464.343 569.23 467.172C551.598 476.625 576.021 489.784 562.594 513.026C555.292 525.664 523.568 481.84 511.911 476.809C503.027 473.383 485.461 465.88 470.571 478.222C455.681 490.564 467.039 516.535 437.108 522.495C407.178 528.455 445.908 584.679 451.887 595.942C466.716 623.872 459.643 623.213 456.97 639.927C454.297 656.64 447.405 676.831 463.106 686.429C479.128 696.224 501.109 672.822 507.919 669.31C514.729 665.799 523.43 662.936 529.902 655.022C536.04 647.518 536.746 638.489 539.39 632.1C542.035 625.71 555.398 610.016 568.565 613.378C578.471 615.908 577.764 626.904 586.187 632.693C601.972 643.541 616.728 647.457 634.59 640.661C657.881 631.8 658.32 612.516 659.759 605.474Z" stroke="#4F2567"/>
<path d="M1059.6 564.493C1057.51 533.489 1013.77 491.208 1013.3 440.465C1012.24 324.743 1097.12 319.612 1115.54 242.484C1126.89 194.933 1145.24 117.621 1100.78 97.1816C1065.79 81.099 1037.91 91.1402 1002.62 106.525C945.945 131.23 887.537 182.01 826.937 169.68C776.841 159.487 805.822 92.8808 769.987 56.4514C695.678 -19.0914 675.137 7.91398 579.938 54.4806C556.723 65.8365 544.464 74.6617 525.813 92.5389C463.505 152.262 579.861 178.937 550.779 291.274C534.965 352.361 353.226 206.317 299.117 198.794C258.35 194.759 176.908 183.746 129.282 252.349C81.6561 320.951 158.491 416.084 41.1785 475.434C-76.1337 534.784 148.858 724.425 186.55 764.464C280.023 863.759 249.933 869.167 257.98 941.901C266.027 1014.63 260.556 1106.72 336.663 1128.62C414.323 1150.96 478.701 1028.09 502.925 1005.6C527.148 983.118 559.957 961.151 577.742 920.711C594.608 882.36 587.198 843.921 590.852 814.246C594.507 784.57 631.964 703.756 690.42 702.586C734.401 701.706 744.058 748.346 785.619 762.758C863.502 789.764 929.184 789.064 995.485 740.149C1081.94 676.363 1061.69 595.497 1059.6 564.493Z" stroke="#4F2567"/>
<path d="M1046.83 565.205C1044.99 534.794 1002.4 493.046 1002.28 443.293C1002.01 329.829 1085.27 325.368 1103.85 249.873C1115.3 203.329 1133.81 127.653 1090.36 107.315C1056.16 91.312 1028.75 100.969 994.049 115.816C938.317 139.657 880.708 189.051 821.375 176.555C772.326 166.225 801.189 101.117 766.299 65.1596C693.95 -9.40406 673.628 16.9349 579.976 61.9508C557.138 72.9285 545.059 81.4986 526.653 98.9007C465.16 157.037 579.063 183.972 549.794 293.915C533.878 353.7 356.672 209.293 303.671 201.553C263.728 197.324 183.95 185.979 136.793 252.92C89.6367 319.86 164.33 413.647 48.9109 471.048C-66.5086 528.448 152.813 715.89 189.499 755.398C280.478 853.378 250.939 858.479 258.34 929.843C265.741 1001.21 259.757 1091.45 334.23 1113.43C410.223 1135.86 474.17 1015.83 498.071 993.943C521.973 972.061 554.289 950.744 571.998 911.215C588.792 873.728 581.785 835.992 585.568 806.921C589.351 777.851 626.619 698.871 683.942 698.116C727.069 697.548 736.224 743.341 776.876 757.749C853.055 784.75 917.46 784.505 982.794 736.993C1067.99 675.036 1048.67 595.617 1046.83 565.205Z" stroke="#4F2567"/>
<path d="M1032.93 565.99C1031.36 536.234 990.005 495.09 990.258 446.43C990.835 335.459 1072.3 331.71 1091.02 258.013C1102.57 212.577 1121.24 138.703 1078.88 118.491C1045.56 102.587 1018.68 111.83 984.628 126.093C929.943 148.999 873.234 196.881 815.296 184.222C767.4 173.757 796.11 110.294 762.253 74.8698C692.042 1.41172 671.972 27.0214 580.044 70.3559C557.626 80.9236 545.749 89.2161 527.618 106.1C467.046 162.503 578.249 189.686 548.81 296.996C532.802 355.349 360.553 212.809 308.773 204.848C269.738 200.417 191.795 188.733 145.179 253.853C98.5632 318.973 170.924 411.249 57.6143 466.535C-55.6954 521.821 157.426 706.76 193.014 745.671C281.272 842.167 252.344 846.937 259.055 916.787C265.766 986.636 259.247 1074.85 331.922 1096.9C406.081 1119.39 469.511 1002.47 493.049 981.248C516.588 960.023 548.352 939.414 565.964 900.885C582.667 864.346 576.093 827.388 580.007 798.985C583.922 770.582 620.956 693.613 677.025 693.298C719.21 693.062 727.826 737.915 767.478 752.306C841.786 779.276 904.778 779.512 969.029 733.526C1052.81 673.562 1034.51 595.746 1032.93 565.99Z" stroke="#4F2567"/>
<path d="M1017.94 566.849C1016.64 537.811 976.635 497.345 977.273 449.882C978.73 341.642 1058.22 338.641 1077.08 266.904C1088.71 222.678 1107.52 150.768 1066.37 130.712C1033.99 114.931 1007.69 123.73 974.36 137.37C920.832 159.273 865.128 205.523 808.713 192.708C762.075 182.115 790.593 120.442 757.85 85.6153C689.953 13.3968 670.169 38.216 580.146 79.7465C558.193 89.8743 546.541 97.8675 528.718 114.19C469.177 168.721 577.435 196.131 547.854 300.568C531.768 357.359 364.891 216.935 314.444 208.753C276.402 204.117 200.465 192.093 154.468 255.238C108.471 318.383 178.314 408.975 67.338 461.991C-43.6384 515.008 162.768 697.118 197.17 735.359C282.487 830.195 254.23 834.616 260.214 902.803C266.198 970.991 259.129 1056.99 329.844 1079.08C402.003 1101.62 464.82 988.077 487.951 967.563C511.083 947.05 542.234 927.202 559.725 889.761C576.312 854.255 570.197 818.151 574.244 790.477C578.291 762.803 615.037 688.023 669.734 688.167C710.886 688.276 718.93 732.096 757.494 746.453C829.762 773.358 891.208 774.095 954.254 729.756C1036.46 671.938 1019.24 595.887 1017.94 566.849Z" stroke="#4F2567"/>
<path d="M1001.9 567.786C1000.89 539.53 962.33 499.821 963.365 453.66C965.724 348.389 1043.08 346.162 1062.05 276.548C1073.74 233.631 1092.66 163.849 1052.81 143.982C1021.45 128.351 995.794 136.681 963.252 149.658C910.993 170.497 856.404 214.999 801.639 202.044C756.365 191.334 784.642 131.593 753.096 97.4332C687.679 26.5965 668.218 50.5656 580.288 90.1785C558.845 99.8387 547.441 107.512 529.962 123.234C471.57 175.758 576.637 203.361 546.953 304.688C530.812 359.788 369.707 221.747 320.707 213.35C283.743 208.509 209.981 196.153 164.688 257.173C119.395 318.194 186.545 406.919 78.1332 457.522C-30.279 508.124 168.914 687.057 202.045 724.553C284.21 817.541 256.685 821.595 261.913 887.972C267.14 954.349 259.514 1037.94 328.109 1060.04C398.105 1082.59 460.197 972.696 482.877 952.945C505.557 933.193 536.031 914.158 553.371 877.892C569.815 843.499 564.181 808.329 568.359 781.446C572.536 754.563 608.931 682.145 662.136 682.761C702.165 683.225 709.608 725.918 746.995 740.219C817.059 767.018 876.823 768.269 938.536 725.69C1019.01 670.166 1002.91 596.042 1001.9 567.786Z" stroke="#4F2567"/>
<path d="M984.879 568.806C984.165 541.396 947.138 502.528 948.574 457.774C951.846 355.711 1026.88 354.275 1045.93 286.946C1057.68 245.437 1076.68 177.944 1038.21 158.306C1007.94 142.854 982.989 150.693 951.308 162.972C900.433 182.692 847.078 225.337 794.088 212.261C750.283 201.452 778.264 143.784 747.991 110.363C685.213 41.0591 666.116 64.1207 580.472 101.712C559.587 110.88 548.455 118.214 531.358 133.297C474.238 183.685 575.872 211.435 546.138 309.417C529.968 362.698 375.023 227.329 327.582 218.728C291.78 213.688 220.362 201.016 175.867 259.766C131.372 318.516 195.663 405.183 90.0533 453.24C-15.5566 501.298 175.943 676.677 207.723 713.348C286.535 804.289 259.804 807.963 264.253 872.38C268.701 936.797 260.524 1017.78 326.839 1039.86C394.509 1062.38 455.753 956.394 477.932 937.452C500.112 918.511 529.844 900.337 546.999 865.331C563.268 832.133 558.133 797.974 562.436 771.944C566.739 745.914 602.712 676.029 654.303 677.124C693.118 677.947 699.936 719.418 736.061 733.636C803.757 760.279 861.703 762.051 921.95 721.337C1000.51 668.247 985.593 596.216 984.879 568.806Z" stroke="#4F2567"/>
<path d="M966.927 569.915C966.511 543.415 931.11 505.478 932.944 462.237C937.128 363.623 1009.67 362.984 1028.76 298.1C1040.52 258.097 1059.57 193.053 1022.58 173.688C993.48 158.451 969.28 165.777 938.535 177.33C889.163 195.881 837.164 236.565 786.075 223.397C743.842 212.512 771.465 157.054 742.537 124.449C682.549 56.837 663.86 78.9358 580.702 114.413C560.422 123.065 549.589 130.043 532.912 144.45C477.197 192.58 575.159 220.417 545.438 314.823C529.276 366.159 380.861 233.772 335.091 224.984C300.535 219.755 231.63 206.793 188.034 263.132C144.438 319.471 205.715 403.88 103.153 449.273C0.591336 494.666 183.94 666.089 214.291 701.851C289.561 790.536 263.686 793.82 267.342 856.125C270.997 918.431 262.283 996.625 326.163 1018.62C391.347 1041.07 451.604 939.241 473.232 921.155C494.859 903.069 523.78 885.801 540.712 852.138C556.769 820.214 552.147 787.147 556.567 762.031C560.986 736.916 596.456 669.729 646.312 671.303C683.823 672.487 689.999 712.638 724.774 726.741C789.942 753.168 845.934 755.461 904.575 716.712C981.042 666.184 967.343 596.415 966.927 569.915Z" stroke="#4F2567"/>
<path d="M948.109 571.122C947.99 545.597 914.298 508.686 916.525 467.062C921.603 372.138 991.477 372.295 1010.55 310.011C1022.31 271.613 1041.34 209.176 1005.92 190.133C978.057 175.15 954.672 181.948 924.939 192.746C877.191 210.087 826.678 248.714 777.614 235.49C737.055 224.558 764.248 171.444 736.734 139.737C679.679 73.9859 661.444 95.0692 580.977 128.351C561.354 136.467 550.846 143.072 534.631 156.769C480.461 202.528 574.511 230.378 544.883 320.977C528.772 370.244 387.24 241.173 343.253 232.223C310.028 226.82 243.803 213.605 201.216 267.397C158.63 321.19 216.748 403.13 117.488 445.755C18.2275 488.38 192.988 655.416 221.84 690.178C293.389 776.385 268.434 779.273 271.292 839.314C274.15 899.355 264.927 974.567 326.216 996.429C388.755 1018.74 447.872 921.317 468.894 904.129C489.916 886.942 517.953 870.619 534.618 838.381C550.423 807.807 546.323 775.914 550.847 751.773C555.37 727.633 590.245 663.307 638.246 665.353C674.359 666.892 679.88 705.625 713.223 719.576C775.705 745.72 829.607 748.523 886.496 711.83C960.679 663.982 948.228 596.647 948.109 571.122Z" stroke="#4F2567"/>
<path d="M928.491 572.437C928.664 547.953 896.76 512.169 899.365 472.269C905.305 381.275 972.331 382.212 991.327 322.685C1003.04 285.986 1022 226.311 988.238 207.647C961.677 192.961 939.168 199.219 910.524 209.241C864.526 225.336 815.635 261.818 768.719 248.582C729.935 237.639 756.619 186.998 730.582 156.275C676.591 92.5651 658.862 112.583 581.297 143.6C562.382 151.164 552.228 157.381 536.519 170.336C484.04 213.618 573.946 241.39 544.505 327.959C528.495 375.034 394.181 249.636 352.086 240.557C320.275 235 256.896 221.578 215.439 272.696C173.981 323.814 228.81 403.065 133.113 442.832C37.4151 482.6 203.178 644.788 230.462 678.456C298.127 761.951 274.156 764.44 276.222 822.063C278.288 879.686 268.593 951.725 327.139 973.386C386.881 995.489 444.687 902.709 465.046 886.459C485.405 870.209 512.484 854.869 528.833 824.134C544.338 794.986 540.765 764.348 545.376 741.243C549.986 718.139 584.165 656.831 630.188 659.334C664.813 661.217 669.673 698.431 701.5 712.188C761.144 737.969 812.819 741.264 867.804 706.709C939.504 661.65 928.318 596.922 928.491 572.437Z" stroke="#4F2567"/>
<path d="M908.144 573.875C908.6 550.496 878.556 515.946 881.517 477.875C888.27 391.053 952.271 392.744 971.119 336.125C982.739 301.219 1001.55 244.459 969.535 226.235C944.343 211.895 922.772 217.604 895.297 226.834C851.177 241.658 804.053 275.914 759.404 262.717C722.494 251.807 748.578 203.766 724.078 174.118C673.272 112.637 656.102 131.542 581.658 160.24C563.504 167.238 553.733 173.055 538.577 185.24C487.944 225.947 573.477 253.536 544.332 335.854C528.484 380.617 401.7 259.274 361.606 250.104C331.292 244.42 270.924 230.85 230.724 279.171C190.524 327.493 241.946 403.824 150.081 440.662C58.2163 477.5 214.597 634.348 240.255 666.823C303.885 747.359 280.963 749.451 282.251 804.502C283.54 859.552 273.426 928.229 329.082 949.609C385.874 971.426 442.181 883.514 461.817 868.239C481.454 852.963 507.497 838.636 523.475 809.48C538.629 781.83 535.58 752.53 540.258 730.522C544.935 708.513 578.305 650.374 622.227 653.311C655.273 655.521 659.473 691.116 689.705 704.631C746.359 729.958 795.671 733.719 848.593 701.375C917.603 659.198 907.688 597.254 908.144 573.875Z" stroke="#4F2567"/>
<path d="M887.143 575.452C887.867 553.243 859.749 520.04 863.037 483.903C870.537 401.493 931.333 403.899 949.95 350.337C961.427 317.316 980.013 263.619 949.815 245.904C926.055 231.964 905.486 237.119 879.263 245.546C837.152 259.08 791.944 291.041 749.681 277.944C714.743 267.116 740.129 221.795 717.217 193.319C669.705 134.268 653.153 152.016 582.054 178.354C564.716 184.777 555.358 190.182 540.804 201.57C492.182 239.616 573.116 266.899 544.395 344.75C528.776 387.084 409.812 270.206 371.827 260.992C343.091 255.212 285.895 241.565 247.092 286.976C208.289 332.387 256.201 405.556 168.446 439.411C80.691 473.267 227.337 624.25 251.314 655.427C310.775 732.744 288.966 734.445 289.505 786.769C290.043 839.092 279.575 904.22 332.196 925.229C385.891 946.668 440.494 863.84 459.344 849.571C478.195 835.302 503.121 822.014 518.668 794.511C533.413 768.428 530.881 740.551 535.601 719.698C540.32 698.844 572.755 644.02 614.456 647.359C645.83 649.871 649.377 683.744 677.937 696.963C731.458 721.736 778.27 725.925 828.963 695.853C895.066 656.64 886.418 597.66 887.143 575.452Z" stroke="#4F2567"/>
<path d="M865.564 577.187C866.539 556.215 840.404 524.478 843.983 490.38C852.145 412.619 909.559 415.687 927.849 365.328C939.125 334.281 957.387 283.793 929.085 266.66C906.816 253.18 887.314 257.781 862.426 265.4C822.459 277.635 779.326 307.24 739.563 294.313C706.692 283.627 731.271 241.141 709.994 213.938C665.871 157.527 650 174.078 582.476 198.032C566.01 203.873 557.097 208.857 543.197 219.426C496.758 254.735 572.875 281.569 544.72 354.744C529.41 394.536 418.528 282.557 382.757 273.355C355.681 267.519 301.815 253.877 264.558 296.273C227.301 338.668 271.617 408.423 188.257 439.26C104.897 470.098 241.489 614.66 263.737 644.429C318.911 718.253 298.283 719.575 298.108 769.016C297.933 818.456 287.193 879.85 336.639 900.387C387.094 921.344 439.769 843.805 457.766 830.571C475.764 817.337 499.49 805.109 514.539 779.328C528.812 754.879 526.783 728.508 531.515 708.868C536.247 689.228 567.61 637.856 606.969 641.556C636.581 644.339 639.49 676.388 666.303 689.251C716.551 713.355 760.728 717.925 809.019 690.178C871.991 653.995 864.589 598.159 865.564 577.187Z" stroke="#4F2567"/>
<path d="M843.49 579.105C844.691 559.434 820.589 529.289 824.413 497.333C833.135 424.459 886.989 428.123 904.844 381.105C915.852 352.118 933.682 304.979 907.348 288.513C886.627 275.556 868.257 279.608 844.79 286.419C807.106 297.357 766.212 324.555 729.062 311.879C698.35 301.4 722.002 261.859 702.399 236.035C661.748 182.486 646.624 197.804 582.911 219.365C567.373 224.623 558.939 229.178 545.746 238.909C501.672 271.415 572.76 297.641 545.333 365.939C530.419 403.079 427.857 296.461 394.402 287.336C369.065 281.488 318.685 267.948 283.133 307.232C247.582 346.516 288.232 412.592 209.56 440.398C130.887 468.204 257.141 605.755 277.621 634C328.409 704.045 309.026 705.004 308.189 751.406C307.351 797.809 296.433 855.286 342.57 875.238C389.648 895.597 440.152 823.538 457.227 811.362C474.302 799.187 496.74 788.033 511.219 764.041C524.95 741.288 523.405 716.508 528.114 698.139C532.824 679.77 562.965 631.98 599.862 635.99C627.622 639.007 629.916 669.128 654.911 681.567C701.752 704.878 743.16 709.771 788.871 684.386C848.477 651.285 842.289 598.776 843.49 579.105Z" stroke="#4F2567"/>
<path d="M821.004 581.234C822.402 562.928 800.375 534.507 804.39 504.796C813.547 437.041 863.666 441.219 880.965 397.678C891.631 370.834 908.91 327.18 884.609 311.468C865.489 299.105 848.318 302.618 826.36 308.629C791.098 318.282 752.616 343.035 718.186 330.7C689.723 320.502 712.317 284.007 694.42 259.675C657.308 209.219 643.002 223.272 583.341 242.45C568.792 247.127 560.87 251.25 548.441 260.126C506.921 289.778 572.776 315.216 546.258 378.443C531.838 412.825 437.8 312.058 406.763 303.083C383.241 297.277 336.499 283.949 302.822 320.035C269.146 356.121 306.081 418.245 232.395 443.027C158.71 467.809 274.381 597.726 293.06 624.325C339.383 690.291 321.313 690.909 319.875 734.118C318.438 777.328 307.453 830.71 350.152 849.95C393.722 869.582 441.792 803.181 457.871 792.082C473.951 780.984 495.013 770.914 508.841 748.772C521.955 727.773 520.866 704.67 525.514 687.627C530.161 670.584 558.917 626.498 593.234 630.758C619.053 633.963 620.764 662.051 643.873 673.993C687.18 696.371 725.687 701.517 768.63 678.522C824.629 648.537 819.607 599.54 821.004 581.234Z" stroke="#4F2567"/>
<path d="M798.195 583.606C799.754 566.73 779.835 540.171 783.978 512.805C793.425 450.398 839.635 454.994 856.245 415.058C866.485 390.437 883.078 350.397 860.873 335.535C843.402 323.842 827.498 326.832 807.137 332.057C774.441 340.447 738.55 362.728 706.944 350.835C680.816 341.003 702.21 307.649 686.044 284.925C652.521 237.804 639.107 250.566 583.745 267.388C570.244 271.491 562.87 275.18 551.265 283.19C512.498 309.949 572.924 334.4 547.515 392.371C533.697 423.895 448.356 329.496 419.833 320.754C398.202 315.047 355.243 302.057 323.623 334.869C292.003 367.682 325.192 425.571 256.799 447.36C188.407 469.149 293.294 590.774 310.149 615.602C351.948 677.174 335.256 677.478 333.295 717.342C331.335 757.205 320.41 806.318 359.549 824.707C399.486 843.47 444.839 782.887 459.847 772.879C474.855 762.871 494.448 753.887 507.539 733.652C519.954 714.463 519.288 693.122 523.829 677.458C528.369 661.795 555.564 621.525 587.184 625.963C610.974 629.302 612.141 655.254 633.302 666.617C672.956 687.912 708.431 693.229 748.415 672.637C800.554 645.784 796.637 600.483 798.195 583.606Z" stroke="#4F2567"/>
<path d="M775.153 586.26C776.831 570.875 759.043 546.323 763.24 521.401C772.812 464.567 814.942 469.466 830.715 433.258C840.439 410.935 856.197 374.63 836.144 360.724C820.366 349.781 805.797 352.269 787.124 356.729C757.138 363.892 724.025 383.688 695.342 372.348C671.629 362.973 691.672 332.847 677.252 311.854C647.351 268.322 634.908 279.769 584.095 294.285C571.704 297.825 564.914 301.081 554.196 308.217C518.388 332.058 573.2 355.302 549.119 407.843C536.024 436.414 459.516 348.928 433.601 340.512C413.933 334.972 374.899 322.457 345.527 351.934C316.154 381.411 345.587 434.769 282.8 453.621C220.013 472.473 313.958 585.115 328.975 608.04C366.215 664.892 350.967 664.915 348.574 701.281C346.18 737.647 335.461 782.321 370.925 799.706C407.113 817.446 449.447 762.823 463.304 753.914C477.161 745.006 495.189 737.101 507.45 718.826C519.078 701.495 518.793 682.001 523.176 667.769C527.56 653.538 553.004 617.185 581.812 621.718C603.487 625.129 604.161 648.841 623.313 659.538C659.204 679.584 691.52 684.979 728.346 666.787C776.367 643.064 773.475 601.644 775.153 586.26Z" stroke="#4F2567"/>
<path d="M751.97 589.237C753.721 575.406 738.075 553.012 742.244 530.63C751.751 479.587 789.634 484.66 804.408 452.293C813.516 432.338 828.278 399.884 810.427 387.043C796.381 376.94 783.215 378.952 766.321 382.677C739.192 388.658 709.05 405.971 683.382 395.306C662.163 386.491 680.689 359.669 668.023 340.533C641.758 300.853 630.369 310.969 584.361 323.248C573.142 326.242 566.973 329.069 557.205 335.329C524.571 356.242 573.597 378.038 551.083 424.987C538.841 450.516 471.266 370.515 448.047 362.528C430.412 357.23 395.437 345.345 368.514 371.436C341.592 397.527 367.282 446.05 310.418 462.047C253.554 478.044 336.449 580.977 349.623 601.862C382.294 653.655 368.555 653.437 365.834 686.156C363.113 718.875 352.76 758.947 384.444 775.162C416.774 791.708 455.765 743.171 468.389 735.364C481.012 727.557 497.378 720.719 508.71 704.45C519.456 689.022 519.501 671.457 523.672 658.707C527.842 645.957 551.332 613.612 577.219 618.146C596.695 621.558 596.934 642.928 614.024 652.863C646.05 671.482 675.084 676.848 708.546 661.038C752.182 640.423 750.219 603.069 751.97 589.237Z" stroke="#4F2567"/>
<path d="M728.742 592.589C730.512 580.371 717.009 560.292 721.056 540.541C730.286 495.5 763.76 500.6 777.358 472.179C785.742 454.657 799.332 426.159 783.724 414.503C771.443 405.332 759.75 406.902 744.728 409.929C720.604 414.79 693.632 429.634 671.066 419.78C652.412 411.634 669.246 388.183 658.331 371.037C635.696 335.482 625.448 344.256 584.503 354.389C574.518 356.86 569.01 359.264 560.259 364.649C531.023 382.642 574.1 402.728 553.415 443.935C542.167 466.342 483.583 394.423 463.143 386.979C447.608 382.005 416.817 370.921 392.558 393.589C368.298 416.258 390.283 459.633 339.664 472.884C289.044 486.134 360.835 578.603 372.172 597.306C400.289 643.689 388.123 643.275 385.194 672.201C382.265 701.127 372.46 736.44 400.266 751.306C428.64 766.475 463.945 724.126 475.249 717.416C486.554 710.706 501.159 704.915 511.453 690.693C521.216 677.205 521.535 661.654 525.431 650.432C529.327 639.21 550.645 610.948 573.502 615.379C590.698 618.712 590.571 637.637 605.55 646.708C633.622 663.707 659.252 668.925 689.142 655.464C728.118 637.912 726.972 604.807 728.742 592.589Z" stroke="#4F2567"/>
<path d="M705.565 596.369C707.294 585.822 695.923 568.221 699.745 551.191C708.461 512.354 737.368 517.316 749.601 492.937C757.143 477.907 769.369 453.461 756.04 443.116C745.552 434.977 735.4 436.145 722.342 438.519C701.372 442.332 677.775 454.74 658.391 445.842C642.367 438.485 657.322 418.461 648.145 403.441C629.113 372.295 620.098 379.722 584.476 387.823C575.789 389.799 570.98 391.789 563.315 396.308C537.707 411.405 574.691 429.495 556.115 464.826C546.015 484.039 496.434 420.827 478.853 414.049C465.478 409.489 438.991 399.391 417.618 418.617C396.245 437.842 414.588 475.748 370.538 486.39C326.487 497.032 387.175 578.248 396.693 594.622C420.298 635.231 409.769 634.674 406.768 659.665C403.767 684.655 394.709 715.063 418.55 728.385C442.879 741.98 474.133 705.899 484.031 700.276C493.929 694.653 506.67 689.879 515.814 677.736C524.485 666.22 525.011 652.764 528.565 643.114C532.119 633.464 551.035 609.349 570.758 613.558C585.597 616.725 585.183 633.104 598.01 641.201C622.047 656.375 644.16 661.31 670.261 650.147C704.297 635.591 703.836 606.916 705.565 596.369Z" stroke="#4F2567"/>
<path d="M682.538 600.641C684.159 591.82 674.895 576.865 678.377 562.64C686.319 530.199 710.509 534.839 721.171 514.587C727.745 502.101 738.402 481.792 727.378 472.893C718.703 465.891 710.161 466.703 699.16 468.479C681.493 471.332 661.483 481.353 645.351 473.567C632.016 467.13 644.894 450.577 637.43 437.823C621.953 411.376 614.264 417.459 584.227 423.668C576.902 425.182 572.833 426.773 566.325 430.438C544.583 442.681 575.342 458.47 559.179 487.806C550.39 503.759 509.78 449.905 495.128 443.927C483.973 439.881 461.897 430.971 443.644 446.749C425.391 462.526 440.182 494.632 403.028 502.834C365.874 511.035 415.519 580.179 423.247 594.075C442.412 628.536 433.581 627.895 430.66 648.813C427.739 669.731 419.646 695.094 439.448 706.665C459.655 718.473 486.475 688.717 494.876 684.162C503.276 679.608 514.049 675.813 521.921 665.776C529.386 656.257 530.044 644.976 533.183 636.938C536.322 628.9 552.591 608.98 569.082 612.837C581.489 615.739 580.878 629.474 591.517 636.48C611.455 649.608 629.941 654.114 652.033 645.179C680.843 633.528 680.916 609.462 682.538 600.641Z" stroke="#4F2567"/>
</svg>
